<?xml version="1.0" encoding="utf-8"?>
<!-- Generator: Adobe Illustrator 24.0.1, SVG Export Plug-In . SVG Version: 6.00 Build 0)  -->
<svg version="1.1" id="Layer_1" xmlns="http://www.w3.org/2000/svg" xmlns:xlink="http://www.w3.org/1999/xlink" x="0px" y="0px"
	 viewBox="0 0 17 18" style="enable-background:new 0 0 17 18;" xml:space="preserve">
<style type="text/css">
	.st0{fill:#E0592A;}
</style>
<g>
	<path class="st0" d="M8.5,12c-0.6,0-1-0.4-1-1V1c0-0.6,0.4-1,1-1s1,0.4,1,1v10C9.5,11.6,9.1,12,8.5,12z"/>
	<path class="st0" d="M8.5,18c-0.3,0-0.5-0.1-0.7-0.3l-7.5-7.5c-0.4-0.4-0.4-1,0-1.4s1-0.4,1.4,0l6.8,6.8l6.8-6.8
		c0.4-0.4,1-0.4,1.4,0s0.4,1,0,1.4l-7.5,7.5C9,17.9,8.8,18,8.5,18z"/>
</g>
</svg>
