<?xml version="1.0" encoding="utf-8"?>
<!-- Generator: Adobe Illustrator 24.0.1, SVG Export Plug-In . SVG Version: 6.00 Build 0)  -->
<svg version="1.1" id="Layer_1" xmlns="http://www.w3.org/2000/svg" xmlns:xlink="http://www.w3.org/1999/xlink" x="0px" y="0px"
	 viewBox="0 0 33.9 54.9" style="enable-background:new 0 0 33.9 54.9;" xml:space="preserve">
<style type="text/css">
	.st0{fill:#F7931E;}
</style>
<path class="st0" d="M14.4,54.9c-0.1,0-0.3,0-0.4-0.1c-0.5-0.2-0.9-0.6-0.9-1.2V37.9H1.2c-0.7,0-1.2-0.6-1.2-1.2s0.6-1.2,1.2-1.2
	h13.1c0.7,0,1.2,0.6,1.2,1.2v13.1l15.6-22.2L15.6,5.2v13.1c0,0.7-0.6,1.2-1.2,1.2H1.2C0.6,19.5,0,19,0,18.3S0.6,17,1.2,17h11.9V1.3
	c0-0.5,0.4-1,0.9-1.2s1.1,0,1.4,0.5l18.3,26.2c0.3,0.4,0.3,1,0,1.4L15.4,54.4C15.1,54.7,14.8,54.9,14.4,54.9z"/>
</svg>
