<?xml version="1.0" encoding="utf-8"?>
<!-- Generator: Adobe Illustrator 24.0.1, SVG Export Plug-In . SVG Version: 6.00 Build 0)  -->
<svg version="1.1" id="Layer_1" xmlns="http://www.w3.org/2000/svg" xmlns:xlink="http://www.w3.org/1999/xlink" x="0px" y="0px"
	 viewBox="0 0 462.9 258" style="enable-background:new 0 0 462.9 258;" xml:space="preserve">
<style type="text/css">
	.st0{fill:#333333;}
	.st1{fill:#E0592A;}
</style>
<g>
	<g>
		<path class="st0" d="M0,5.1h6.5v32.6H0V5.1z"/>
		<path class="st0" d="M19.5,25.3c0-8.2,5.7-13,11.8-13c6.2,0,11.8,4.8,11.8,13c0,8.1-5.7,12.9-11.8,12.9
			C25.2,38.2,19.5,33.5,19.5,25.3z M36.6,25.3c0-4.7-1.9-7.7-5.2-7.7c-3.3,0-5.2,3-5.2,7.7c0,4.6,1.9,7.6,5.2,7.6
			C34.7,33,36.6,30,36.6,25.3z"/>
		<path class="st0" d="M59.7,10.5h-9.2V5.1h24.9v5.4h-9.2v27.2h-6.5V10.5z"/>
		<path class="st0" d="M89.2,7.3c3.7-0.3,10.9-1,18.8-1.7c4.5-0.4,9.2-0.6,12.3-0.7l0,5.6c-2.3,0-6.1,0-8.4,0.6
			c-5.3,1.4-9.2,7-9.2,12.2c0,7.2,6.7,9.8,14.1,10.1l-2,6c-9.2-0.6-17.8-5.5-17.8-15c0-6.3,3.5-11.2,6.4-13.4
			c-3.8,0.4-12.9,1.4-18,2.5l-0.6-6C86.7,7.5,88.4,7.4,89.2,7.3z M117.8,20.7l-3.3,1.5c-1.1-2.4-2-4.1-3.4-6.1l3.3-1.4
			C115.4,16.3,117,19,117.8,20.7z M122.9,18.6l-3.3,1.6c-1.2-2.4-2.2-4-3.6-5.9l3.2-1.5C120.3,14.3,122,16.9,122.9,18.6z"/>
		<path class="st0" d="M137.9,12.2c3.4-1,12.2-4.1,18.6-4.1c7.9,0,14.1,4.5,14.1,12.6c0,9.9-9.4,16.2-24.8,17l-2.5-5.8
			c11.8-0.3,21-3.7,21-11.3c0-4.1-2.8-7.2-8.1-7.2c-6.4,0-16.7,4.3-21.3,6.3l-2.5-6.2C134.2,13.2,136.3,12.7,137.9,12.2z"/>
		<path class="st0" d="M204.6,12c-2,0.5-4.7,1.1-7.6,1.5c-2.1,6.1-5.8,13.7-9.3,18.7l-5.3-2.7c3.5-4.3,7-10.7,8.9-15.4
			c-0.7,0-1.5,0-2.2,0c-1.8,0-3.6,0-5.5-0.1l-0.4-5.1c1.9,0.2,4.2,0.3,5.8,0.3c1.3,0,2.6,0,3.9-0.1c0.6-2.4,1.1-5.1,1.2-7.3l6,0.6
			c-0.4,1.4-0.9,3.6-1.5,5.9c2.1-0.4,4.1-0.8,5.9-1.4L204.6,12z M210.3,15.9c-0.1,1.8,0,3.7,0,5.6c0,1.2,0.1,3.3,0.3,5.5
			c3.7,1.4,6.8,3.6,9,5.6l-2.9,4.7c-1.5-1.4-3.5-3.2-5.9-4.6V33c0,4-2.2,7.2-8.4,7.2c-5.4,0-9.7-2.4-9.7-7.2c0-4.3,3.6-7.6,9.6-7.6
			c1,0,2,0.1,2.9,0.2c-0.1-3.3-0.4-7.1-0.5-9.7H210.3z M205.5,30.3c-1.1-0.3-2.3-0.4-3.5-0.4c-2.5,0-4.1,1.1-4.1,2.6
			c0,1.6,1.4,2.7,3.7,2.7c2.9,0,3.9-1.7,3.9-4V30.3z M217.8,18.2c-2.5-2-7.5-4.9-10.5-6.2l2.8-4.3c3.1,1.4,8.5,4.3,10.7,5.9
			L217.8,18.2z"/>
		<path class="st0" d="M257.5,6c-1.4,1-2.8,2.2-3.8,2.9c-2.8,2.3-8.6,6.7-11.5,9.2c-2.3,2-2.3,2.5,0.1,4.5c3.3,2.8,11.7,9.4,16,13.6
			l-5.1,4.7c-1.2-1.4-2.6-2.7-3.8-4c-2.4-2.5-9-8.2-13-11.6c-4.3-3.7-4-6.1,0.4-9.7c3.4-2.8,9.4-7.6,12.3-10.5
			c1.2-1.2,2.6-2.6,3.3-3.7L257.5,6z"/>
		<path class="st0" d="M295.9,16.5c-0.5,6.6-1.5,11.9-3.1,15.9c2.3,3.2,5.5,3.9,9.5,3.9c1.7,0,8.1,0,10.1-0.1
			c-0.6,1.1-1.3,3.2-1.5,4.4h-8.8c-4.8,0-8.5-0.8-11.3-4.1c-1.3,2.1-2.9,3.7-4.7,4.9c-0.7-0.8-2.4-2.2-3.3-2.8
			c0.2-0.1,0.5-0.3,0.7-0.4c-4.1,0.8-8.2,1.5-11.6,2.2l-1.1-4.5c1.7-0.3,3.7-0.6,5.9-0.9v-12h-5.1v-4.3h5.1v-3.2H273v-1.3l-0.2,0.2
			c-0.7-1-2.1-2.6-3.1-3.3c3.6-3.2,6-7.3,7.3-10.8h3.8c1.8,1.7,3.8,3.9,5.3,5.9V3.4h5.1l0.7-0.2l3,0.7c-1,3.5-2.3,8-3.7,12.3h1.3
			l0.7-0.1L295.9,16.5z M274.8,25c0.7,2.4,1.3,5.5,1.5,7.6l-3.2,0.8c-0.1-2.2-0.7-5.3-1.3-7.7L274.8,25z M283.8,11.4
			c-0.9-1.7-2.5-4-4-5.9c-1.1,1.8-2.4,3.9-4,5.9H283.8z M286.1,35.9c0.9-1,1.6-2.1,2.3-3.4c-1-2.3-1.8-5.2-2.4-9l3.4-0.9
			c0.3,1.7,0.6,3.2,1,4.5c0.5-2,0.9-4.3,1.2-6.8H290l-0.4,1.1l-4-0.8c1.4-3.9,2.9-8.8,4-12.7h-2.3l0,0l-2.9,3.3h0.5v4.2h-4.1v3.2
			h4.6v4.3h-4.6v11.2c1.7-0.3,3.3-0.6,5-0.9L286.1,35.9z M281.1,31.7c0.5-1.9,1.2-5.1,1.4-7.1l3.3,0.7c-0.7,2.5-1.2,5.2-1.8,7.1
			L281.1,31.7z M300.2,7.7h-3.8V3.8h3.8V0.6h4.2v3.3h5.9v5.3h1.8v4.6h-1.8v5.5h-5.9v2.1h6.2v4.1h-6.2v2.1h6.9v4.3h-6.9v3.6h-4.2
			v-3.6H295v-4.3h5.2v-2.1h-4.3v-4.1h4.3v-2.1h-3.8v-3.9h3.8v-1.9h-5.7v-4h5.7V7.7z M304.4,7.7v1.8h2.2V7.7H304.4z M306.6,15.4v-1.9
			h-2.2v1.9H306.6z"/>
		<path class="st0" d="M362.5,7.5h-7.3c0.7,1.1,1.5,2.1,1.8,2.9l-4.8,1.4c-0.5-1.1-1.6-2.9-2.6-4.3h-2.6c-0.8,1-1.6,1.9-2.4,2.7v2.4
			h16.9v8.7h-5.1v-4.8h-28v4.8h-4.9v-8.7h16.2V9.5h1.9c-0.8-0.4-1.6-0.8-2.2-1.1c0.4-0.3,0.7-0.6,1.1-0.9h-5.1
			c0.6,1.1,1.1,2.1,1.5,2.9l-4.7,1.3c-0.4-1.1-1.1-2.8-2-4.2h-0.7c-1.1,1.6-2.4,3.1-3.5,4.2c-1-0.8-3.1-2.2-4.3-2.8
			c2.6-2.2,5.1-5.6,6.5-8.9l4.9,1.3c-0.3,0.7-0.7,1.4-1,2.1h9.8v2.9c1.8-1.8,3.3-4.1,4.2-6.4l5,1.2c-0.3,0.7-0.7,1.5-1.1,2.2h12.8
			V7.5z M335.3,30.1h22.6v11.4h-5.2v-1.2h-17.4v1.2h-5V18.3h24.3v9.8h-19.3V30.1z M335.3,22.1v2.3h14.1v-2.3H335.3z M335.3,34v2.5
			h17.4V34H335.3z"/>
		<path class="st0" d="M388,32.7c-4.8,1.7-10.1,3.4-14.3,4.8l-1.2-5.3c1.5-0.4,3.3-0.9,5.4-1.5V20.3h-4.4v-4.8h4.4V7.7H373V2.9h14.5
			v4.9h-4.7v7.7h4v4.8h-4v8.8c1.5-0.4,2.9-0.9,4.3-1.4L388,32.7z M414.1,35.3v4.8h-28.3v-4.8H398v-4.2h-9.1v-4.7h9.1v-3.8h-8.8V2.2
			h23v20.5h-8.8v3.8h9.3v4.7h-9.3v4.2H414.1z M393.9,10.3h4.5V6.6h-4.5V10.3z M393.9,18.2h4.5v-3.8h-4.5V18.2z M407.2,6.6h-4.4v3.7
			h4.4V6.6z M407.2,14.4h-4.4v3.8h4.4V14.4z"/>
		<path class="st0" d="M443,34.3c1.7-0.2,2.9-0.4,4-0.7c5.6-1.3,9.9-5.3,9.9-11.7c0-6-3.3-10.5-9.1-11.5c-0.6,3.7-1.4,7.7-2.6,11.8
			c-2.6,8.8-6.4,14.2-11.1,14.2c-4.8,0-8.9-5.3-8.9-12.7c0-10,8.8-18.7,20.1-18.7c10.8,0,17.6,7.5,17.6,17c0,9.2-5.6,15.7-16.6,17.3
			L443,34.3z M439.7,21.1c1-3.2,1.8-7,2.3-10.6c-7.2,1.5-11,7.8-11,12.6c0,4.4,1.8,6.6,3.4,6.6C436.1,29.7,437.9,27,439.7,21.1z"/>
		<path class="st0" d="M126,87.4c-1.1,0.1-2.9,0.4-4.6,0.7c-2.1,0.4-5.7,0.9-9.5,1.5c0.7,3.6,1.3,6.6,1.6,7.9
			c0.3,1.3,0.7,2.9,1.1,4.3l-6.3,1.1c-0.2-1.7-0.4-3.2-0.6-4.4c-0.2-1.3-0.8-4.3-1.5-8c-4.5,0.7-8.6,1.5-10.5,1.8
			c-1.9,0.4-3.4,0.7-4.4,0.9l-1.2-5.9c1.2,0,3.2-0.3,4.6-0.5c2-0.3,6.1-1,10.6-1.7l-1.3-7c-3.9,0.6-7.3,1.2-8.6,1.4
			c-1.5,0.3-2.7,0.6-4,0.9l-1.2-6.1c1.4,0,2.7-0.1,4.1-0.3c1.5-0.2,4.9-0.7,8.7-1.3c-0.4-1.8-0.7-3.3-0.8-4
			c-0.3-1.2-0.6-2.3-0.9-3.3l6.2-1c0.1,0.9,0.3,2.4,0.5,3.4c0.1,0.6,0.4,2.1,0.7,4c3.7-0.6,7.1-1.1,8.7-1.5c1.4-0.3,3.1-0.6,4.1-0.9
			l1.1,5.8c-1,0.1-2.7,0.4-4,0.5l-8.8,1.4l1.4,7c4-0.7,7.6-1.2,9.5-1.6c1.7-0.4,3.3-0.7,4.5-1.1L126,87.4z"/>
		<path class="st0" d="M164.6,95.4c1.1,0,3.2,0,4.3-0.2v5.7c-0.9,0-3-0.1-4.2-0.1h-23.2c-1.6,0-2.7,0-4.4,0.1v-5.7
			c1.2,0.1,2.8,0.2,4.4,0.2h14.3c0.6-3.7,1.6-10,1.7-12.5h-11.9c-1.4,0-3.1,0.1-4.4,0.2v-5.8c1.1,0.1,3.2,0.3,4.4,0.3h11.3
			c0.9,0,2.7-0.2,3.3-0.5l4.2,2.1c-0.2,0.6-0.4,1.4-0.4,1.8c-0.4,2.6-1.5,10.2-2.2,14.3H164.6z"/>
		<path class="st0" d="M182.1,79.8c1.6,0.1,4.8,0.3,7.1,0.3h23.6c2,0,4-0.2,5.1-0.3v6.9c-1.1,0-3.3-0.2-5.1-0.2h-23.6
			c-2.5,0-5.5,0.1-7.1,0.2V79.8z"/>
		<path class="st0" d="M240.6,79.3c5.2-1.3,11.3-3.2,15.2-4.9c1.4-0.5,2.7-1.1,4.2-2c-0.8-0.9-1.3-2.2-1.3-3.5
			c0-2.9,2.3-5.3,5.2-5.3s5.3,2.4,5.3,5.3s-2.4,5.3-5.3,5.3c-1.1,0-2-0.3-2.8-0.8l1.8,4.3c-1.7,0.7-3.7,1.5-5.1,2.1
			c-4.4,1.8-11.5,4-17.2,5.4v8.1c0,1.9,0.9,2.4,2.9,2.8c1.3,0.2,3.1,0.3,5.1,0.3c4.6,0,11.7-0.6,15.3-1.5v6.4
			c-4.1,0.6-10.8,0.9-15.7,0.9c-2.9,0-5.5-0.2-7.4-0.5c-3.8-0.7-6-2.8-6-6.6V71c0-1-0.1-3.2-0.4-4.6h6.5c-0.2,1.4-0.4,3.3-0.4,4.6
			V79.3z M266.5,69c0-1.4-1.1-2.6-2.6-2.6c-1.4,0-2.5,1.1-2.5,2.6s1.1,2.6,2.5,2.6C265.4,71.5,266.5,70.4,266.5,69z"/>
		<path class="st0" d="M289.3,86.4l-5.4,2c-0.7-2.4-2.9-8.2-4-10.2l5.3-1.9C286.3,78.6,288.4,83.9,289.3,86.4z M311.6,77.2
			c-0.5,1.4-0.8,2.3-1.1,3.2c-1.1,4.4-3,9-6,12.9c-4.1,5.3-9.6,9-14.7,10.9l-4.6-4.7c4.8-1.3,11-4.6,14.6-9.2
			c3-3.7,5.1-9.6,5.6-15.1L311.6,77.2z M299,83.7l-5.3,1.8c-0.5-2.2-2.5-7.5-3.6-9.8l5.2-1.7C296.2,75.9,298.4,81.6,299,83.7z"/>
		<path class="st0" d="M352.2,90.1c-4.5-2.4-11.1-4.9-15.9-6.6V96c0,1.3,0.2,4.4,0.4,6.1h-6.9c0.3-1.7,0.4-4.4,0.4-6.1V70.7
			c0-1.6-0.1-3.8-0.4-5.3h6.9c-0.2,1.5-0.4,3.5-0.4,5.3v6.5c5.9,1.7,14.3,4.8,18.4,6.8L352.2,90.1z"/>
	</g>
	<g>
		<g>
			<g>
				<path class="st1" d="M51.5,100v55.6l17.1-17h16.3l-22.8,22.1l24.5,30.5H70.8L53.4,169l-1.9,1.9v20.2H39.3V100H51.5z"/>
				<path class="st1" d="M160,167.8h-37.7c0.3,4.3,1.7,7.8,4.2,10.3c2.5,2.5,5.7,3.8,9.6,3.8c3,0,5.5-0.7,7.5-2.2
					c1.9-1.4,4.2-4.1,6.6-8l10.3,5.7c-1.6,2.7-3.3,5-5,6.9c-1.8,1.9-3.7,3.5-5.7,4.8c-2,1.2-4.2,2.2-6.5,2.7
					c-2.3,0.6-4.9,0.9-7.6,0.9c-7.9,0-14.2-2.5-18.9-7.6c-4.8-5.1-7.1-11.8-7.1-20.2c0-8.3,2.3-15,6.9-20.2
					c4.6-5.1,10.8-7.6,18.5-7.6c7.7,0,13.9,2.5,18.4,7.4c4.5,4.9,6.7,11.7,6.7,20.4L160,167.8z M147.5,157.8
					c-1.7-6.5-5.8-9.7-12.3-9.7c-1.5,0-2.9,0.2-4.2,0.7c-1.3,0.5-2.5,1.1-3.5,1.9c-1.1,0.8-2,1.9-2.7,3c-0.8,1.2-1.3,2.5-1.7,4.1
					H147.5z"/>
				<path class="st1" d="M207.5,181.4l-23.6-42.8H198l16.1,30.2l15-30.2h13.7l-41.9,81.2H187L207.5,181.4z"/>
				<path class="st1" d="M280.9,219.8h-12.1v-81.2h12.1v5.7c4.8-4.8,10.2-7.2,16.3-7.2c7.2,0,13.2,2.7,17.9,8c4.8,5.3,7.1,12,7.1,20
					c0,7.9-2.4,14.5-7.1,19.7c-4.7,5.2-10.6,7.8-17.7,7.8c-6.2,0-11.7-2.5-16.5-7.4V219.8z M309.8,165.2c0-5-1.4-9.1-4.1-12.3
					c-2.8-3.2-6.3-4.8-10.5-4.8c-4.5,0-8.1,1.5-10.9,4.6c-2.8,3.1-4.2,7.2-4.2,12.2c0,4.9,1.4,9,4.2,12.2c2.7,3.1,6.3,4.7,10.8,4.7
					c4.2,0,7.7-1.6,10.4-4.8C308.4,173.9,309.8,170,309.8,165.2z"/>
				<path class="st1" d="M364.9,138.6v52.6h-12.1v-52.6H364.9z"/>
				<path class="st1" d="M414.1,150v41.3H402V150h-5.2v-11.3h5.2v-19.3h12.2v19.3h9.5V150H414.1z"/>
			</g>
			<polygon class="st1" points="367.1,121.6 367.1,124 367.1,128.7 360,128.7 357.6,128.7 350.5,128.7 350.5,117 358.8,109.9 
				367.1,117 			"/>
		</g>
		<g>
			<g>
				<path class="st0" d="M109.8,247.1c-0.6,0.1-1.7,0.3-2.7,0.4c-1.5,0.2-3.9,0.6-6.5,1c0.5,2.5,0.9,4.6,1.1,5.4
					c0.2,0.8,0.4,1.8,0.7,2.6l-3.2,0.6c-0.1-1-0.2-1.9-0.4-2.7c-0.1-0.7-0.5-2.8-1-5.4c-3.1,0.5-5.9,1-7.2,1.2
					c-1.1,0.2-2,0.4-2.6,0.5l-0.6-3c0.7,0,1.9-0.2,2.7-0.3c1.4-0.2,4.2-0.6,7.3-1.1l-1-5.2c-2.6,0.4-4.9,0.8-5.9,1
					c-1,0.2-1.7,0.3-2.4,0.5l-0.6-3.1c0.8-0.1,1.6-0.1,2.4-0.2c1-0.1,3.4-0.4,5.9-0.8c-0.3-1.4-0.5-2.4-0.6-2.8
					c-0.2-0.8-0.3-1.4-0.6-2l3.1-0.5c0.1,0.5,0.2,1.4,0.3,2c0.1,0.3,0.3,1.4,0.5,2.9c2.5-0.4,4.9-0.8,6-1c0.9-0.2,1.7-0.4,2.3-0.5
					l0.5,2.9c-0.5,0.1-1.5,0.2-2.2,0.3c-1.2,0.2-3.6,0.6-6.1,1l1,5.1c2.7-0.4,5.2-0.9,6.6-1.1c1.1-0.2,2-0.4,2.6-0.6L109.8,247.1z"
					/>
				<path class="st0" d="M155.1,243.2c0.9,0.1,2.6,0.2,4.1,0.2h15.2c1.4,0,2.5-0.1,3.1-0.2v3.4c-0.6,0-1.9-0.1-3.1-0.1h-15.2
					c-1.6,0-3.2,0.1-4.1,0.1V243.2z"/>
				<path class="st0" d="M228.3,242.9c3.3-0.8,7.5-2.1,10.2-3.3c0.9-0.4,1.8-0.8,2.7-1.3c-0.6-0.6-0.9-1.4-0.9-2.3
					c0-1.8,1.5-3.2,3.2-3.2c1.8,0,3.2,1.5,3.2,3.2c0,1.8-1.5,3.2-3.2,3.2c-0.8,0-1.6-0.3-2.2-0.9l1.2,2.7c-0.9,0.4-2,0.9-2.9,1.2
					c-3,1.2-7.7,2.6-11.2,3.6v5.7c0,1.3,0.6,1.7,1.9,2c0.8,0.1,2.2,0.2,3.5,0.2c2.9,0,7.3-0.3,9.6-0.9v3.2c-2.5,0.4-6.7,0.6-9.8,0.6
					c-1.7,0-3.4-0.1-4.6-0.3c-2.3-0.4-3.6-1.5-3.6-3.9V237c0-0.6-0.1-1.8-0.2-2.5h3.3c-0.1,0.7-0.2,1.7-0.2,2.5V242.9z M245.2,236
					c0-1-0.8-1.8-1.8-1.8c-1,0-1.7,0.8-1.7,1.8s0.8,1.7,1.7,1.7C244.5,237.8,245.2,237,245.2,236z"/>
				<path class="st0" d="M294.8,247.2l-2.7,1c-0.5-1.5-1.9-5.3-2.5-6.4l2.6-1C292.8,242.1,294.2,245.7,294.8,247.2z M308.9,241.2
					c-0.3,0.7-0.4,1.2-0.5,1.7c-0.8,3-2,5.9-3.9,8.4c-2.6,3.3-6,5.5-9.2,6.8l-2.3-2.4c3.2-0.9,6.9-3,9.2-5.9c1.9-2.4,3.3-6,3.7-9.6
					L308.9,241.2z M301,245.4l-2.6,1c-0.3-1.3-1.6-4.8-2.2-6.2l2.6-0.9C299.2,240.5,300.6,244.2,301,245.4z"/>
				<path class="st0" d="M369.5,248.9c-3-1.6-7.5-3.4-10.6-4.4v8.7c0,0.9,0.1,2.6,0.2,3.6h-3.4c0.1-1,0.2-2.5,0.2-3.6V237
					c0-0.9-0.1-2.2-0.3-3.1h3.4c-0.1,0.9-0.2,2.2-0.2,3.1v4.4c3.7,1.1,9,3.1,11.8,4.5L369.5,248.9z"/>
			</g>
		</g>
	</g>
</g>
</svg>
