<svg xmlns="http://www.w3.org/2000/svg" width="24.781" height="22.312" viewBox="0 0 24.781 22.312">
  <defs>
    <style>
      .cls-1 {
        fill: #fff;
        fill-rule: evenodd;
      }
    </style>
  </defs>
  <path id="icon" class="cls-1" d="M570.546,400.184a1.24,1.24,0,0,0-1.24,1.24v3.1H549.479v-3.1a1.24,1.24,0,1,0-2.479,0v4.337A1.239,1.239,0,0,0,548.239,407h22.307a1.239,1.239,0,0,0,1.239-1.239v-4.337A1.24,1.24,0,0,0,570.546,400.184Zm-11.153-4.337a1.239,1.239,0,0,0,1.239-1.239v-8.675a1.24,1.24,0,1,0-2.479,0v8.675A1.24,1.24,0,0,0,559.393,395.847Zm-0.877,5.834a1.245,1.245,0,0,0,1.753,0l6.816-6.818a1.239,1.239,0,0,0-1.753-1.752l-5.939,5.941-5.94-5.941a1.239,1.239,0,1,0-1.753,1.752Z" transform="translate(-547 -384.688)"/>
</svg>
