<?xml version="1.0" encoding="utf-8"?>
<!-- Generator: Adobe Illustrator 24.0.1, SVG Export Plug-In . SVG Version: 6.00 Build 0)  -->
<svg version="1.1" id="Layer_1" xmlns="http://www.w3.org/2000/svg" xmlns:xlink="http://www.w3.org/1999/xlink" x="0px" y="0px"
	 viewBox="0 0 120 158.6" style="enable-background:new 0 0 120 158.6;" xml:space="preserve">
<style type="text/css">
	.st0{fill:#F18A00;}
	.st1{fill:#E0592A;}
</style>
<g>
	<g>
		<path class="st0" d="M106,45.9c-0.1-0.3-0.3-0.6-0.6-0.8c-0.4-0.3-0.7-0.6-1.2-0.7c-0.4-0.1-0.8-0.3-1.2-0.4
			c-0.5-0.2-1-0.3-1.6-0.4c-0.6-0.2-1.3-0.4-1.9-0.5c-1.9-0.4-3.7-1-5.5-1.8c-1-0.5-2.1-0.9-3.2-1.3c-1.3-0.5-2.7-0.9-4.1-1.1
			c-1.6-0.2-3.2-0.2-4.8,0.1c-0.8,0.2-1.5,0.5-2.2,0.8c-0.2,0.1-0.3,0.2-0.5,0.3c-0.2-0.1-0.2-0.4-0.3-0.6c-0.1-0.2-0.2-0.4-0.3-0.6
			c-0.3-0.5-0.6-1-1-1.4c-0.1-0.1-0.2-0.2-0.2-0.3c0-0.1,0.2-0.2,0.3-0.2c0.1,0,0.1-0.1,0.1-0.2c0-0.2,0.1-0.2,0.2-0.3
			c0.2-0.1,0.5-0.2,0.7-0.3c0.4-0.1,0.8-0.3,1.2-0.3c0.8-0.1,1.5-0.3,2.3-0.4c0.3-0.1,0.6-0.2,0.9-0.3c0.8-0.4,1.6-0.9,2.3-1.4
			c0.6-0.5,1.1-1.1,1.7-1.6c0.3-0.3,0.6-0.6,0.8-1c0.4-0.6,0.7-1.2,1-1.9c0.1-0.2,0.2-0.4,0.4-0.4c0.5-0.2,0.9-0.5,1.3-1
			c0.5-0.7,0.8-1.4,0.9-2.2c0.2-1.3-0.2-2.5-1-3.5c-0.3-0.4-0.7-0.9-1.2-1.2c-0.1-0.1-0.1-0.2-0.1-0.3c0-0.2,0-0.4,0-0.6
			c0-0.8-0.2-1.5-0.5-2.2c-0.2-0.4-0.4-0.7-0.6-1c-0.3-0.5-0.8-0.8-1.2-1.2c-0.1-0.1-0.3-0.2-0.5-0.3c-0.1-0.1-0.2-0.1-0.3-0.2
			c-0.2-0.1-0.4-0.2-0.6-0.3c-0.6-0.3-1.2-0.5-1.9-0.7c-0.2,0-0.3-0.2-0.3-0.3c-0.1-0.5-0.3-1-0.6-1.4c-0.3-0.5-0.7-0.9-1.2-1.3
			c-0.5-0.3-0.9-0.6-1.5-0.9c-0.7-0.3-1.5-0.6-2.3-0.7c-0.7-0.1-1.3-0.1-2,0c-0.7,0-1.3,0.3-2,0.5c-0.1,0.1-0.3,0.2-0.4,0.2
			c-0.2,0-0.3-0.2-0.4-0.2c-0.1,0-0.2-0.1-0.4-0.1c-0.7-0.1-1.4,0-2.1,0.2c-0.6,0.2-1.1,0.6-1.5,0.9c-0.3,0.2-0.5,0.5-0.7,0.7
			c-0.3,0.5-0.4,1-0.3,1.5c0,0.1,0,0.2,0.1,0.3c0,0.1-0.1,0.1-0.1,0.2c0,0-0.1,0-0.1,0c-0.8,0.1-1.5,0.5-2.1,1c-0.6,0.5-1,1.2-1,2
			c0,0.6,0.1,1.1,0.3,1.6c0.1,0.1,0.1,0.3,0.1,0.4c0,0.4,0.1,0.7,0.1,1.1c0,0.3,0,0.7-0.1,1c0,0.1,0,0.2-0.1,0.2
			c-0.3,0.2-0.4,0.4-0.6,0.7c-0.1,0.2-0.2,0.3-0.3,0.5c-0.5,0.5-1.1,1.1-1.6,1.6c-0.4,0.4-0.8,0.9-1.1,1.5c-0.3,0.5-0.5,1-0.6,1.5
			c-0.1,0.5-0.2,1-0.2,1.5c0.1,0.9,0.2,1.7,0.4,2.5c0.2,0.8,0.5,1.6,1,2.2c0.1,0.1,0.2,0.2,0.3,0.4c0.4,0.5,0.9,0.9,1.5,1.3
			c0.1,0.1,1.1,1,1.5,1.1c0.5,0.1,1,0.2,1,0.2c0.1,0,0.6,0,0.8,0c0.7,0.1,1.1,0.1,1.8,0.1c0.6,0,1.1,0.1,1.7,0c0.1,0,0.1,0,0.1,0.1
			c0,0,0,0,0,0c-0.2,0.1-0.4,0.2-0.7,0.3c-0.4,0.2-0.8,0.5-1.2,0.7c-0.2,0.1-0.4,0.2-0.6,0.2c-0.6-0.1-1.2-0.1-1.7-0.1
			c-0.6-0.1-1.2-0.1-1.9-0.2c-0.8,0-1.6-0.1-2.4-0.1c-1.4,0-2.8-0.1-4.1-0.1c-0.5,0-1,0-1.5,0c-0.1,0-0.2,0-0.3-0.2
			c-0.1-0.4-0.3-0.8-0.4-1.2c-0.1-0.6-0.3-1.2-0.5-1.8c-0.3-0.9-0.5-1.8-0.7-2.7c-0.2-0.9-0.4-1.8-0.7-2.7c-0.2-0.8-0.4-1.6-0.6-2.4
			c-0.1-0.5-0.2-0.9-0.4-1.4c-0.2-0.7-0.4-1.5-0.7-2.2c-0.1-0.2-0.1-0.4-0.1-0.6c0-0.1,0-0.2,0.1-0.3c0.1-0.1,0.1-0.1,0.2-0.2
			c0.4-0.3,0.8-0.6,0.9-1.2c0-0.1,0.1-0.1,0.1-0.2c0.3-0.5,0.4-1.1,0.2-1.8c-0.3-1.1-1.4-1.4-2.3-1.2c-0.1,0-0.1,0.1-0.2,0.1
			c-0.1,0.1-0.3,0.2-0.4,0.3c-0.3,0.4-0.6,0.8-0.5,1.3c0,0.1-0.1,0.2-0.2,0.2c-0.9,0.3-1.7,0.8-2.5,1.2c-0.5,0.3-1,0.6-1.6,0.9
			c-0.3,0.2-0.6,0.3-0.9,0.5c-1.3,0.7-2.4,1.5-3.6,2.4c-0.8,0.6-1.4,1.2-2,1.9c-0.3-2.3-1.7-4.4-4-5.5c-3.5-1.7-7.7-0.5-9.3,2.8
			l-1.4,2.8L13,20.6l2.3-4.8l-4-2l-2.3,4.8l-2.6-1.3l2.3-4.8l-4-2l-4.2,8.7l0,0l-0.1,0.1l22.5,11l-1.4,2.8c-1.6,3.3-0.1,7.4,3.5,9.1
			c3.1,1.5,6.6,0.7,8.5-1.7c0,0.1,0,0.1,0,0.2c-0.1,0.7-0.2,1.4-0.2,2.1c0,0.5,0,1,0,1.6c0.1,0.6,0.2,1.2,0.3,1.8
			c0.1,0.3,0.1,0.6,0.2,0.9c0.1,0.2,0.1,0.5,0.2,0.7c0.3,0.8,0.6,1.6,0.8,2.4c0.4,1,0.7,1.9,1.3,2.8c0.5,0.8,0.8,1.7,0.9,2.6
			c0.1,0.8,0.2,1.6,0.3,2.4c0,0.3,0,0.6-0.2,0.8c-0.1,0.1-0.1,0.2-0.2,0.3c-0.1,0.2-0.2,0.3-0.4,0.3c-0.7,0.1-1.2,0.7-1.2,1.4
			c0,0.7,0.6,1.5,1.6,1.2c0.1,0,0.2-0.1,0.2-0.1c0.3-0.1,0.6-0.3,0.8-0.4c0.6-0.3,1-0.8,1.2-1.4c0.4-1,0.7-2,0.8-3
			c0-0.2,0-0.5,0.1-0.7c0.1-0.3,0.4-0.3,0.5-0.5c0.4-0.5,0.9-0.8,1.4-1.2c1-0.8,2.1-1.5,3.2-2.3c0.8-0.6,1.6-1.1,2.3-1.7
			c0.4-0.2,0.8-0.6,1.1-0.9c0.6-0.5,1.2-0.9,1.8-1.3c0.3-0.2,0.7-0.4,1-0.7c0.7-0.5,1.5-1,2.3-1.5c0.2-0.1,0.3-0.2,0.5-0.4
			c0.3-0.3,0.6-0.6,0.9-0.9c0.1-0.1,0.2-0.2,0.4-0.1c0.7,0.1,1.3,0.2,2,0.4c0.3,0.1,0.7,0.1,1.1,0.1c0.6,0,1.1,0.2,1.6,0.3
			c0.1,0,0.1,0.1,0.1,0.1c-0.1,0.1-0.1,0.2-0.2,0.3c-0.3,0.2-0.4,0.5-0.6,0.8c-0.2,0.3-0.5,0.6-0.7,1c-0.2,0.2-0.4,0.5-0.6,0.7
			c-0.6,0.9-1.3,1.8-1.9,2.7c-0.5,0.8-1,1.6-1.4,2.5c-0.3,0.6-0.5,1.3-0.7,1.9c-0.3,1-0.6,2-0.8,2.9c-0.3,0.9-0.4,1.9-0.4,2.8
			c0,0.2,0,0.4,0,0.6c0.1,1,0.4,2,0.8,2.9c0.2,0.5,0.5,0.9,0.6,1.4c0.1,0.2,0.2,0.3,0.2,0.5c0,0.2-0.3,0.2-0.4,0.4
			c-0.5,0.4-0.9,0.8-1.4,1.3c-0.2,0.2-0.4,0.4-0.6,0.7c-0.4,0.6-0.8,1.2-1.2,1.8c-0.1,0.1-0.1,0.2-0.2,0.3c-0.2,0.6-0.4,1.3-0.5,2
			c0,0.5,0,1.1,0.3,1.6c0.1,0.2,0.2,0.4,0.2,0.6c0,0.7,0.4,1.2,0.7,1.7c0.4,0.5,0.8,1.1,1.2,1.6c0.1,0.1,0.2,0.2,0.3,0.3
			c0.5,0.3,0.8,0.7,1.2,1c0.1,0.1,0.2,0.2,0.2,0.3c0,0.1,0,0.2,0,0.4c0.1,1.2,0.2,2.4,0.3,3.6c0,0.5,0.1,1,0.2,1.4
			c0.1,0.9,0.3,1.8,0.5,2.7c0.2,0.9,0.4,1.8,0.7,2.6c0.1,0.2,0.2,0.5,0.2,0.7c0,0.6,0.2,1.2,0.3,1.7c0.3,1.4,0.9,2.8,1.5,4.1
			c0.6,1.3,1.3,2.6,1.9,3.9c0.4,0.8,0.7,1.5,1,2.4c0.1,0.4,0.2,0.8,0,1.2c-0.1,0.2-0.1,0.5-0.2,0.7c-0.1,0.5-0.2,1.1-0.3,1.6
			c-0.1,0.5-0.2,0.9-0.2,1.4c-0.2,0.9,0.1,1.6,0.5,2.3c0.1,0.2,0.3,0.3,0.5,0.2c0.3-0.1,0.5-0.1,0.7-0.3c0.3-0.3,0.7-0.5,1-0.8
			c0.2-0.3,0.5-0.5,0.7-0.8c0.4-0.4,0.7-0.8,1-1.2c0.6-0.6,1.2-1.3,1.9-1.7c0.2-0.1,0.4-0.3,0.6-0.5c0.2-0.3,0.5-0.7,0.7-1
			c0.1-0.1,0.1-0.3,0.1-0.4c0-0.3,0-0.6-0.2-0.8c-0.1-0.2-0.2-0.4-0.4-0.7c-0.1-0.1-0.1-0.3-0.2-0.4c-0.1-0.4-0.3-0.9-0.4-1.3
			c-0.3-1.1-0.7-2.1-1-3.2c-0.3-1.3-0.9-2.4-1.4-3.6c-0.2-0.5-0.5-1.1-0.6-1.6c-0.2-0.2-0.1-0.3,0-0.5c0.1-0.2,0.2-0.4,0.3-0.6
			c0.2-0.6,0.6-1.2,0.9-1.9c0.1-0.3,0.3-0.6,0.5-1c0.4-0.8,0.7-1.5,1-2.3c0.2-0.4,0.4-0.9,0.5-1.3c0-0.1,0.2-0.2,0.3-0.2
			c0.5,0.2,0.9,0.3,1.4,0.5c1.4,0.5,2.7,0.9,4.1,1.3c0.6,0.2,1.2,0.3,1.7,0.5c0.8,0.3,1.6,0.5,2.5,0.7c0.1,0,0.3,0.1,0.4,0.2
			c0.5,0.3,1.1,0.5,1.6,0.8c0.5,0.2,1,0.4,1.4,0.7c0.1,0,0.1,0.1,0.2,0.1c0.3,0.1,0.5,0.3,0.8,0.4c0.4,0.3,0.8,0.5,1.1,0.8
			c0.8,0.5,1.5,1,2.3,1.5c0.5,0.3,1.1,0.3,1.6,0.1c0.4-0.2,0.7-0.5,0.8-1c0-0.3,0.1-0.6,0.1-0.9c0-1-0.3-1.8-1-2.6
			c-0.5-0.5-1-1-1.5-1.4c-0.6-0.4-1.2-0.9-1.8-1.4c0,0-0.1-0.1-0.1-0.1c-0.4-0.3-0.6-0.7-0.9-1c-0.4-0.5-0.8-1-1.4-1.4
			c-0.7-0.4-1.4-0.6-2.2-0.2c-0.1,0-0.1,0-0.2,0.1c-0.2,0.1-0.3,0.1-0.5,0.1c-0.8-0.3-1.6-0.6-2.3-1.1c-0.7-0.5-1.4-1-2.2-1.4
			c-0.4-0.2-0.7-0.4-1-0.7c-0.3-0.2-0.5-0.5-0.8-0.7c-0.1-0.1-0.3-0.2-0.4-0.3c-0.4-0.4-0.8-0.8-1.2-1.1c-0.1-0.1-0.2-0.2-0.1-0.3
			c0.1-0.3,0.2-0.6,0.2-0.8c0.1-0.2,0.1-0.5,0.2-0.7c0.3-0.1,0.5,0,0.8,0c0.2,0,0.4,0,0.6,0c0.4,0,0.8,0,1.2-0.1
			c0.5-0.1,1-0.1,1.5-0.3c0.7-0.3,1.3-0.5,2-0.8c0.4-0.2,0.7-0.4,1.1-0.6c0.3-0.3,0.6-0.6,0.9-0.9c0.1-0.1,0.2-0.2,0.2-0.3
			c0.2-0.5,0.6-1,0.8-1.6c0.3-0.7,0.6-1.5,0.6-2.3c0.1-1.1,0-2.2-0.2-3.3c-0.2-0.8-0.4-1.6-0.8-2.4c-0.4-0.9-0.8-1.8-1.3-2.7
			c-0.6-0.9-1.1-1.9-1.6-2.9c-0.4-0.8-0.8-1.6-1-2.5c-0.3-1.1-0.5-2.2-0.4-3.3c0-0.8,0.3-1.5,0.6-2.2c0.2-0.4,0.4-0.8,0.6-1.2
			c0.6-1,1.3-2,2.2-2.8c0,0,0.1,0,0.1-0.1c0,0,0,0,0.1,0c0.1,0,0.1,0,0.1,0.1c0,0.2,0,0.3-0.1,0.5c-0.2,0.6-0.2,1.2-0.2,1.8
			c0,0.6,0.1,1.1,0.1,1.7c0,0.5,0,1,0.1,1.4c0.1,1.2,0.5,2.2,1.1,3.3c0.1,0.1,0.2,0.3,0.2,0.5c0,0.3,0.2,0.5,0.4,0.6
			c0.4,0.3,0.8,0.4,1.2,0.6c0.2,0.1,0.5,0.2,0.7,0.2c0.5,0.1,1,0.1,1.4-0.1c0.2-0.1,0.4-0.1,0.5,0.1c0.3,0.2,0.6,0.4,0.9,0.5
			c0.9,0.3,1.8,0.4,2.8,0.3c0.8-0.1,1.5-0.4,2.2-0.7c0.2-0.1,0.5-0.1,0.7-0.1c1.1,0,2.3-0.1,3.4-0.3c0.6-0.1,1.2-0.3,1.7-0.5
			c0.7-0.3,1.2-0.8,1.7-1.3c0.2-0.3,0.5-0.4,0.8-0.4c0.1,0,0.1,0,0.2,0c1-0.1,1.9-0.3,2.8-0.7c0.8-0.3,1.4-0.9,1.9-1.6
			c0.1-0.1,0.1-0.2,0.2-0.3c0.1-0.3,0.4-0.6,0.4-1c0-0.1,0.1-0.2,0.3-0.2c0.2,0,0.4-0.1,0.6-0.1c1.1-0.2,1.7-0.9,2.2-1.8
			c0-0.1,0-0.1,0-0.2C106.3,47.3,106.2,46.6,106,45.9z M30.2,37.6c-0.5,1-2,1.4-3.3,0.8c-1.3-0.6-1.9-2-1.4-3.1l1.4-2.8l0,0l1-2.1
			l2.3-4.8c0.5-1,2-1.4,3.3-0.8c1.3,0.6,1.9,2,1.4,3.1L30.2,37.6z M53.3,44.8c-0.5,0.3-0.9,0.6-1.3,1c-0.2,0.2-0.4,0.3-0.6,0.5
			c-1.2,0.9-2.5,1.8-3.7,2.7c-1.1,0.8-2.2,1.6-3.3,2.4c-0.5,0.4-1.1,0.9-1.6,1.3c-0.7,0.6-1.4,1.1-2.2,1.6c-0.2,0.1-0.4,0.3-0.7,0.4
			c-0.1-0.4-0.2-0.7-0.3-1.1c0-0.5-0.2-1-0.2-1.5c-0.2-1.2-0.5-2.4-0.8-3.6c-0.2-0.6-0.3-1.2-0.3-1.8c0-0.3-0.1-0.6-0.2-0.9
			c-0.2-1-0.3-1.9-0.4-2.9c-0.1-0.9-0.1-1.7-0.1-2.6c0-0.4,0.1-0.8,0.1-1.2c0,0,0-0.1,0.1-0.1c0,0,0.1,0,0.1,0c0.5,0.6,1.2,0.8,2,1
			c0.3,0.1,0.6,0.1,0.9,0.1c0.3,0,0.6,0.1,0.8,0.2c1.2,0.7,2.4,1.3,3.7,1.7c1.1,0.4,2.3,0.8,3.4,1.3c0.2,0.1,0.3,0.1,0.5,0.1
			c1,0.1,1.9,0.5,2.8,0.7c0.4,0.1,0.8,0.2,1.3,0.4c0,0,0.1,0,0.1,0.1C53.4,44.7,53.4,44.8,53.3,44.8z M54.5,37c-1,0-1.9,0-2.9,0.1
			c-0.9,0-1.7,0.1-2.6,0.1c-0.1,0-0.3,0-0.4-0.1c-0.4-0.3-0.8-0.4-1.3-0.4c-1-0.2-2-0.4-3-0.6c-0.6-0.1-1.1-0.3-1.7-0.4
			c-0.1,0-0.2-0.1-0.2-0.2c0-0.2-0.1-0.3-0.3-0.4c-0.5-0.4-1-0.7-1.6-0.9c-0.1,0-0.2-0.1-0.4-0.1c-0.1,0-0.2-0.2-0.1-0.2
			c0,0,0-0.1,0.1-0.1c0.6-0.9,1-1.8,1.7-2.6c0.3-0.5,0.7-0.9,0.9-1.5c0.5-0.5,0.8-1.2,1.3-1.6c0.3-0.3,0.6-0.7,0.9-1.1
			c0.4-0.4,0.7-0.7,1.1-1.1c0.7-0.7,1.5-1.3,2.3-2c0.3-0.2,0.5-0.5,0.8-0.7c0.4-0.3,0.8-0.6,1.3-0.8c0.1-0.1,0.2,0,0.2,0.1
			c0.2,1.1,0.6,2.2,0.9,3.4c0.2,0.9,0.4,1.7,0.6,2.5c0.1,0.3,0.2,0.7,0.3,1c0.3,1,0.6,2.1,0.9,3.1c0.3,0.9,0.5,1.8,0.8,2.8
			c0.1,0.5,0.3,1,0.4,1.4C54.7,36.9,54.6,37,54.5,37z"/>
		<path class="st0" d="M81.3,5.9c0.2,0.2,0.5,0.4,0.8,0.6c0.3,0.1,0.5,0.3,0.8,0.5c0.3,0.2,0.6,0.3,0.9,0.5c0.1,0.1,0.3,0.1,0.4,0.2
			c0.3,0.2,0.7,0.3,1,0.5c0.7,0.4,1.4,0.7,2.1,1.1c0.5,0.2,1,0.4,1.6,0.6c0.4,0.2,0.8,0.3,1.2,0.4c0.5,0.1,1,0.1,1.5-0.1
			c0.5-0.2,0.9-0.5,1.3-0.7c0.6-0.4,0.7-0.9,0.6-1.5c0-0.2-0.1-0.3-0.1-0.5c0-0.1-0.1-0.2-0.1-0.4c-0.1-0.5-0.3-0.9-0.5-1.3
			c-0.2-0.4-0.6-0.8-1-1.1c-0.5-0.4-1-0.9-1.6-1.3c-0.5-0.3-1-0.7-1.6-1.1c-0.4-0.3-0.7-0.6-1.2-0.7c-0.1,0-0.1-0.1-0.2-0.1
			c-0.4-0.3-0.8-0.4-1.2-0.6c-0.6-0.2-1.1-0.4-1.7-0.5c-0.9-0.2-1.8-0.3-2.7-0.2c-0.3,0-0.5,0.1-0.7,0.2c-0.4,0.2-0.8,0.4-1.1,0.7
			c-0.6,0.6-0.8,1.3-0.8,2.1c0.1,0.7,0.4,1.3,0.9,1.8C80.2,5.2,80.7,5.6,81.3,5.9z M82.1,2.6c0.1-0.1,0.3-0.1,0.5-0.2
			c0.6-0.2,1.2-0.1,1.7,0.1c0.3,0.1,0.6,0.2,0.8,0.4c0.5,0.1,0.9,0.5,1.4,0.7c0.2,0.1,0.5,0.3,0.7,0.4c0.4,0.3,0.8,0.5,1.2,0.7
			c0.7,0.4,1.3,0.9,2,1.3c0.4,0.3,0.6,0.6,0.5,1.1c0,0.1-0.1,0.2-0.1,0.2c-0.3,0.2-0.6,0.4-1,0.4c-0.3,0-0.7-0.1-1-0.3
			c-0.4-0.2-0.8-0.4-1.2-0.7c-0.3-0.1-0.6-0.2-0.8-0.4c-0.4,0-0.6-0.3-1-0.4c-0.1,0-0.3-0.1-0.4-0.2c-0.6-0.4-1.1-0.8-1.7-1.1
			c0,0,0,0,0,0c-0.4-0.3-0.8-0.6-1.2-0.9c-0.2-0.1-0.3-0.2-0.5-0.4C81.6,3.2,81.8,2.9,82.1,2.6z"/>
	</g>
	<g>
		<g>
			<path class="st1" d="M3.8,121.2v17.4l5.3-5.3h5.1l-7.1,6.9l7.7,9.5H9.8l-5.4-6.9l-0.6,0.6v6.3H0v-28.5H3.8z"/>
			<path class="st1" d="M37.7,142.4H25.9c0.1,1.3,0.5,2.4,1.3,3.2c0.8,0.8,1.8,1.2,3,1.2c0.9,0,1.7-0.2,2.3-0.7
				c0.6-0.4,1.3-1.3,2.1-2.5l3.2,1.8c-0.5,0.8-1,1.6-1.6,2.2c-0.6,0.6-1.1,1.1-1.8,1.5c-0.6,0.4-1.3,0.7-2,0.9
				c-0.7,0.2-1.5,0.3-2.4,0.3c-2.5,0-4.4-0.8-5.9-2.4c-1.5-1.6-2.2-3.7-2.2-6.3c0-2.6,0.7-4.7,2.2-6.3c1.5-1.6,3.4-2.4,5.8-2.4
				c2.4,0,4.3,0.8,5.7,2.3c1.4,1.5,2.1,3.6,2.1,6.4L37.7,142.4z M33.8,139.3c-0.5-2-1.8-3-3.8-3c-0.5,0-0.9,0.1-1.3,0.2
				c-0.4,0.1-0.8,0.3-1.1,0.6c-0.3,0.3-0.6,0.6-0.9,1c-0.2,0.4-0.4,0.8-0.5,1.3H33.8z"/>
			<path class="st1" d="M52.5,146.6l-7.4-13.4h4.4l5,9.4l4.7-9.4h4.3l-13.1,25.4h-4.3L52.5,146.6z"/>
			<path class="st1" d="M75.4,158.6h-3.8v-25.4h3.8v1.8c1.5-1.5,3.2-2.2,5.1-2.2c2.3,0,4.1,0.8,5.6,2.5c1.5,1.7,2.2,3.7,2.2,6.3
				c0,2.5-0.7,4.5-2.2,6.2c-1.5,1.6-3.3,2.4-5.5,2.4c-1.9,0-3.6-0.8-5.2-2.3V158.6z M84.5,141.6c0-1.6-0.4-2.9-1.3-3.8
				c-0.9-1-2-1.5-3.3-1.5c-1.4,0-2.5,0.5-3.4,1.5c-0.9,1-1.3,2.2-1.3,3.8c0,1.5,0.4,2.8,1.3,3.8c0.9,1,2,1.5,3.4,1.5
				c1.3,0,2.4-0.5,3.3-1.5C84,144.3,84.5,143.1,84.5,141.6z"/>
			<path class="st1" d="M101.7,133.3v16.4h-3.8v-16.4H101.7z"/>
			<path class="st1" d="M117,136.8v12.9h-3.8v-12.9h-1.6v-3.5h1.6v-6h3.8v6h3v3.5H117z"/>
		</g>
		<polygon class="st1" points="102.4,127.9 102.4,128.7 102.4,130.2 100.2,130.2 99.4,130.2 97.2,130.2 97.2,126.5 99.8,124.3 
			102.4,126.5 		"/>
	</g>
</g>
</svg>
